<?xml version="1.0" encoding="UTF-8"?>
<svg xmlns="http://www.w3.org/2000/svg" xmlns:xlink="http://www.w3.org/1999/xlink" viewBox="0 0 96 96" width="96px" height="96px">
<g id="surface324694">
<path style=" stroke:none;fill-rule:nonzero;fill:rgb(89.803922%,58.823532%,36.470589%);fill-opacity:1;" d="M 50.914062 15.007812 C 38.570312 14.667969 28.039062 15.703125 15.757812 16.964844 C 14.535156 17.089844 13.269531 17.234375 12.214844 17.871094 C 9.507812 19.5 9.453125 22.183594 9.726562 25.332031 C 9.816406 26.375 10.054688 27.625 11.027344 28.007812 C 11.296875 28.113281 11.59375 28.136719 11.886719 28.15625 C 34.089844 29.628906 58.816406 28.921875 81 27.21875 C 83.730469 27.011719 84.414062 26.726562 85.875 24.40625 C 87.523438 21.78125 87.109375 18.269531 84.460938 16.664062 C 81.808594 15.058594 81.019531 14.921875 77.917969 14.914062 C 69.546875 14.898438 59.28125 15.238281 50.914062 15.007812 Z M 50.914062 15.007812 "/>
<path style=" stroke:none;fill-rule:nonzero;fill:rgb(0.392157%,0.392157%,0.392157%);fill-opacity:1;" d="M 37.761719 29.957031 C 29.253906 29.957031 20.476562 29.726562 11.816406 29.152344 C 11.515625 29.132812 11.089844 29.109375 10.65625 28.941406 C 8.976562 28.277344 8.796875 26.203125 8.730469 25.421875 C 8.457031 22.238281 8.457031 18.964844 11.699219 17.015625 C 12.976562 16.246094 14.460938 16.09375 15.652344 15.972656 C 27.226562 14.785156 38.164062 13.652344 50.941406 14.011719 C 56.117188 14.15625 62.039062 14.074219 67.765625 14 C 71.285156 13.953125 74.738281 13.914062 77.917969 13.914062 C 81.164062 13.925781 82.125 14.089844 84.972656 15.808594 C 86.34375 16.636719 87.300781 17.960938 87.675781 19.539062 C 88.097656 21.332031 87.75 23.296875 86.71875 24.941406 C 85.058594 27.574219 84.082031 27.984375 81.074219 28.21875 C 69.480469 29.109375 54.117188 29.957031 37.761719 29.957031 Z M 46.148438 15.945312 C 35.46875 15.945312 25.90625 16.929688 15.859375 17.960938 C 14.59375 18.09375 13.5625 18.230469 12.730469 18.726562 C 10.664062 19.972656 10.433594 21.898438 10.722656 25.246094 C 10.816406 26.324219 11.042969 26.941406 11.394531 27.078125 C 11.527344 27.132812 11.761719 27.144531 11.945312 27.15625 C 37.132812 28.824219 63.355469 27.570312 80.921875 26.222656 C 83.371094 26.035156 83.757812 25.894531 85.023438 23.875 C 85.773438 22.683594 86.027344 21.273438 85.726562 20.003906 C 85.550781 19.257812 85.097656 18.21875 83.9375 17.519531 C 81.460938 16.023438 80.871094 15.921875 77.910156 15.914062 C 74.742188 15.90625 71.300781 15.953125 67.792969 16 C 62.042969 16.074219 56.101562 16.152344 50.886719 16.011719 C 49.28125 15.964844 47.703125 15.945312 46.148438 15.945312 Z M 46.148438 15.945312 "/>
<path style=" stroke:none;fill-rule:nonzero;fill:rgb(89.803922%,58.823532%,36.470589%);fill-opacity:1;" d="M 49.609375 42.8125 C 38.164062 43.195312 26.835938 42.914062 15.386719 43.269531 C 13.367188 43.332031 11.011719 43.574219 9.933594 45.289062 C 8.875 46.976562 9.226562 49.882812 9.503906 51.917969 C 9.753906 53.730469 10.929688 54.566406 12.75 54.746094 C 14.859375 54.960938 17.710938 54.875 19.835938 54.914062 C 38.285156 55.253906 58 54.457031 76.074219 54.898438 C 78.550781 54.957031 81.21875 54.480469 83.058594 52.816406 C 84.5625 51.457031 85.222656 49.355469 85.300781 47.324219 C 85.367188 45.605469 84.976562 43.71875 83.648438 42.625 C 82.347656 41.550781 80.507812 41.507812 78.816406 41.515625 C 68.703125 41.574219 59.722656 42.476562 49.609375 42.8125 Z M 49.609375 42.8125 "/>
<path style=" stroke:none;fill-rule:nonzero;fill:rgb(0.392157%,0.392157%,0.392157%);fill-opacity:1;" d="M 30.234375 56.003906 C 26.726562 56.003906 23.238281 55.976562 19.816406 55.914062 C 17.710938 55.875 14.832031 55.960938 12.652344 55.742188 C 9.609375 55.441406 8.722656 53.570312 8.515625 52.054688 C 8.167969 49.519531 7.898438 46.652344 9.089844 44.757812 C 10.558594 42.417969 13.800781 42.316406 15.359375 42.269531 C 20.96875 42.097656 26.632812 42.074219 32.113281 42.054688 C 37.828125 42.035156 43.742188 42.011719 49.578125 41.816406 C 53.703125 41.679688 57.691406 41.441406 61.550781 41.214844 C 67.085938 40.890625 72.808594 40.554688 78.8125 40.519531 C 80.347656 40.519531 82.636719 40.496094 84.285156 41.855469 C 85.679688 43 86.394531 44.960938 86.300781 47.367188 C 86.199219 49.953125 85.285156 52.152344 83.726562 53.5625 C 81.480469 55.597656 78.300781 55.953125 76.046875 55.902344 C 66.664062 55.675781 56.636719 55.78125 46.949219 55.882812 C 41.4375 55.945312 35.808594 56.003906 30.234375 56.003906 Z M 49.644531 43.8125 C 43.777344 44.011719 37.851562 44.03125 32.117188 44.054688 C 26.652344 44.074219 20.996094 44.097656 15.421875 44.269531 C 13.480469 44.324219 11.574219 44.558594 10.78125 45.816406 C 9.878906 47.261719 10.28125 50.199219 10.496094 51.78125 C 10.617188 52.652344 10.988281 53.566406 12.851562 53.753906 C 14.921875 53.960938 17.78125 53.875 19.851562 53.910156 C 28.6875 54.074219 37.960938 53.976562 46.929688 53.878906 C 56.636719 53.773438 66.679688 53.667969 76.097656 53.894531 C 77.996094 53.949219 80.628906 53.664062 82.386719 52.074219 C 83.949219 50.664062 84.257812 48.46875 84.304688 47.285156 C 84.34375 46.261719 84.226562 44.394531 83.015625 43.394531 C 82.007812 42.566406 80.445312 42.511719 78.824219 42.515625 C 72.875 42.550781 67.429688 42.871094 61.664062 43.207031 C 57.796875 43.441406 53.792969 43.675781 49.644531 43.8125 Z M 49.644531 43.8125 "/>
<path style=" stroke:none;fill-rule:nonzero;fill:rgb(89.803922%,58.823532%,36.470589%);fill-opacity:1;" d="M 47.628906 67.832031 C 35.867188 67.9375 25.585938 66.914062 13.8125 67.375 C 13.042969 67.402344 12.222656 67.597656 11.675781 68.144531 C 10.921875 68.894531 10.988281 70.113281 11.109375 71.171875 L 11.375 73.519531 C 11.605469 75.535156 13.410156 79.070312 15.441406 79.082031 C 32.875 79.183594 49.429688 79.132812 66.863281 78.933594 C 70.304688 78.894531 73.753906 78.851562 77.171875 78.480469 C 79.3125 78.253906 81.441406 77.898438 83.539062 77.417969 C 84.328125 77.238281 85.164062 77.007812 85.6875 76.390625 C 86.117188 75.882812 86.257812 75.199219 86.347656 74.539062 C 86.507812 73.382812 86.558594 72.210938 86.503906 71.042969 C 86.402344 68.976562 84.703125 67.3125 82.636719 67.253906 C 70.855469 66.910156 59.511719 67.726562 47.628906 67.832031 Z M 47.628906 67.832031 "/>
<path style=" stroke:none;fill-rule:nonzero;fill:rgb(0.392157%,0.392157%,0.392157%);fill-opacity:1;" d="M 32.804688 80.132812 C 27.066406 80.132812 21.308594 80.117188 15.429688 80.085938 C 12.632812 80.066406 10.625 75.8125 10.378906 73.632812 L 10.113281 71.285156 C 10.007812 70.34375 9.808594 68.59375 10.96875 67.433594 C 11.621094 66.785156 12.589844 66.417969 13.773438 66.375 C 20.464844 66.117188 26.792969 66.332031 32.914062 66.542969 C 37.640625 66.707031 42.519531 66.882812 47.617188 66.832031 C 52.148438 66.789062 56.671875 66.644531 61.046875 66.503906 C 68.082031 66.277344 75.355469 66.042969 82.660156 66.257812 C 85.246094 66.332031 87.371094 68.414062 87.496094 70.996094 C 87.558594 72.226562 87.503906 73.464844 87.335938 74.679688 C 87.226562 75.488281 87.042969 76.339844 86.449219 77.039062 C 85.730469 77.890625 84.683594 78.183594 83.757812 78.394531 C 81.628906 78.882812 79.449219 79.246094 77.277344 79.480469 C 73.746094 79.859375 70.09375 79.898438 66.871094 79.9375 C 55.144531 80.070312 44.023438 80.132812 32.804688 80.132812 Z M 20.234375 68.253906 C 18.148438 68.253906 16.035156 68.289062 13.851562 68.375 C 13.1875 68.398438 12.664062 68.570312 12.378906 68.855469 C 11.960938 69.269531 12 70.160156 12.101562 71.058594 L 12.367188 73.40625 C 12.578125 75.289062 14.238281 78.074219 15.445312 78.085938 C 32.804688 78.1875 49.140625 78.136719 66.851562 77.9375 C 70.183594 77.898438 73.628906 77.859375 77.0625 77.488281 C 79.15625 77.265625 81.261719 76.910156 83.3125 76.445312 C 83.953125 76.300781 84.605469 76.125 84.921875 75.746094 C 85.183594 75.441406 85.285156 74.921875 85.355469 74.40625 C 85.507812 73.3125 85.554688 72.199219 85.5 71.097656 C 85.425781 69.550781 84.152344 68.300781 82.605469 68.257812 C 75.359375 68.042969 68.117188 68.277344 61.109375 68.503906 C 56.726562 68.644531 52.191406 68.792969 47.636719 68.832031 C 42.507812 68.886719 37.59375 68.707031 32.847656 68.542969 C 28.582031 68.394531 24.472656 68.253906 20.234375 68.253906 Z M 20.234375 68.253906 "/>
</g>
</svg>
